<svg width="37" height="37" viewBox="0 0 37 37" fill="none" xmlns="http://www.w3.org/2000/svg">
<path opacity="0.1" fill-rule="evenodd" clip-rule="evenodd" d="M0 18.5C0 8.28273 8.28273 0 18.5 0C28.7173 0 37 8.28273 37 18.5C37 28.7173 28.7173 37 18.5 37C8.28273 37 0 28.7173 0 18.5Z" fill="white"/>
<path d="M17.1406 15.3092V16.7436H16.0906V18.4967H17.1406V23.7082H19.2989V18.4967H20.7468C20.7468 18.4967 20.8833 17.6561 20.9489 16.7363H19.3072V15.5384C19.3072 15.3582 19.5427 15.1175 19.776 15.1175H20.951V13.2915H19.352C17.0875 13.2915 17.1406 15.0467 17.1406 15.3092Z" fill="white"/>
<path d="M18.4999 26.8335C20.7101 26.8335 22.8297 25.9555 24.3925 24.3927C25.9553 22.8299 26.8333 20.7103 26.8333 18.5002C26.8333 16.29 25.9553 14.1704 24.3925 12.6076C22.8297 11.0448 20.7101 10.1668 18.4999 10.1668C16.2898 10.1668 14.1702 11.0448 12.6074 12.6076C11.0446 14.1704 10.1666 16.29 10.1666 18.5002C10.1666 20.7103 11.0446 22.8299 12.6074 24.3927C14.1702 25.9555 16.2898 26.8335 18.4999 26.8335ZM18.4999 28.9168C12.7468 28.9168 8.08325 24.2533 8.08325 18.5002C8.08325 12.747 12.7468 8.0835 18.4999 8.0835C24.253 8.0835 28.9166 12.747 28.9166 18.5002C28.9166 24.2533 24.253 28.9168 18.4999 28.9168Z" fill="white"/>
</svg>
