<svg width="37" height="37" viewBox="0 0 37 37" fill="none" xmlns="http://www.w3.org/2000/svg">
<path opacity="0.1" fill-rule="evenodd" clip-rule="evenodd" d="M0 18.5C0 8.28273 8.28273 0 18.5 0C28.7173 0 37 8.28273 37 18.5C37 28.7173 28.7173 37 18.5 37C8.28273 37 0 28.7173 0 18.5Z" fill="white"/>
<path fill-rule="evenodd" clip-rule="evenodd" d="M18.5009 8.6333C15.8212 8.6333 15.485 8.64502 14.4325 8.69291C13.3821 8.74101 12.6651 8.90731 12.0377 9.15131C11.3888 9.40332 10.8383 9.74043 10.2899 10.2891C9.74105 10.8375 9.40394 11.388 9.1511 12.0367C8.90649 12.6643 8.73999 13.3815 8.69271 14.4315C8.64563 15.4839 8.6333 15.8204 8.6333 18.5001C8.6333 21.1797 8.64522 21.515 8.69291 22.5674C8.74122 23.6178 8.90751 24.3348 9.15131 24.9622C9.40353 25.6111 9.74064 26.1616 10.2893 26.71C10.8375 27.2589 11.388 27.5968 12.0365 27.8488C12.6643 28.0928 13.3815 28.2591 14.4317 28.3072C15.4841 28.3551 15.8202 28.3668 18.4997 28.3668C21.1795 28.3668 21.5148 28.3551 22.5672 28.3072C23.6176 28.2591 24.3354 28.0928 24.9632 27.8488C25.612 27.5968 26.1616 27.2589 26.7098 26.71C27.2587 26.1616 27.5958 25.6111 27.8486 24.9624C28.0912 24.3348 28.2577 23.6176 28.307 22.5676C28.3543 21.5152 28.3666 21.1797 28.3666 18.5001C28.3666 15.8204 28.3543 15.4841 28.307 14.4317C28.2577 13.3813 28.0912 12.6643 27.8486 12.0369C27.5958 11.388 27.2587 10.8375 26.7098 10.2891C26.161 9.74023 25.6122 9.40311 24.9626 9.15131C24.3336 8.90731 23.6162 8.74101 22.5658 8.69291C21.5133 8.64502 21.1783 8.6333 18.4978 8.6333H18.5009ZM17.6157 10.4113C17.8784 10.4109 18.1715 10.4113 18.5008 10.4113C21.1353 10.4113 21.4475 10.4208 22.4878 10.4681C23.4499 10.5121 23.972 10.6728 24.3198 10.8079C24.7802 10.9867 25.1085 11.2005 25.4536 11.5458C25.799 11.8912 26.0128 12.22 26.192 12.6805C26.327 13.0279 26.488 13.55 26.5318 14.512C26.5791 15.5521 26.5893 15.8646 26.5893 18.4978C26.5893 21.131 26.5791 21.4434 26.5318 22.4835C26.4878 23.4456 26.327 23.9677 26.192 24.3151C26.0132 24.7755 25.799 25.1034 25.4536 25.4485C25.1083 25.7938 24.7804 26.0076 24.3198 26.1865C23.9724 26.3221 23.4499 26.4825 22.4878 26.5265C21.4477 26.5737 21.1353 26.584 18.5008 26.584C15.8662 26.584 15.554 26.5737 14.5139 26.5265C13.5518 26.4821 13.0297 26.3213 12.6817 26.1863C12.2213 26.0074 11.8924 25.7936 11.547 25.4483C11.2017 25.103 10.9879 24.7749 10.8087 24.3142C10.6736 23.9668 10.5127 23.4447 10.4689 22.4827C10.4216 21.4426 10.4122 21.1302 10.4122 18.4953C10.4122 15.8605 10.4216 15.5497 10.4689 14.5096C10.5129 13.5475 10.6736 13.0254 10.8087 12.6776C10.9875 12.2172 11.2017 11.8883 11.547 11.5429C11.8924 11.1976 12.2213 10.9838 12.6817 10.8046C13.0295 10.6689 13.5518 10.5086 14.5139 10.4644C15.4241 10.4233 15.7768 10.4109 17.6157 10.4089V10.4113ZM23.7677 12.0496C23.114 12.0496 22.5836 12.5794 22.5836 13.2332C22.5836 13.8869 23.114 14.4173 23.7677 14.4173C24.4213 14.4173 24.9517 13.8869 24.9517 13.2332C24.9517 12.5796 24.4213 12.0496 23.7677 12.0496ZM18.5009 13.433C15.7027 13.433 13.4339 15.7018 13.4339 18.5C13.4339 21.2983 15.7027 23.566 18.5009 23.566C21.2992 23.566 23.5671 21.2983 23.5671 18.5C23.5671 15.7018 21.2992 13.433 18.5009 13.433ZM18.5009 15.2111C20.3172 15.2111 21.7898 16.6835 21.7898 18.5C21.7898 20.3164 20.3172 21.789 18.5009 21.789C16.6844 21.789 15.2119 20.3164 15.2119 18.5C15.2119 16.6835 16.6844 15.2111 18.5009 15.2111Z" fill="white"/>
</svg>
