<svg width="37" height="37" viewBox="0 0 37 37" fill="none" xmlns="http://www.w3.org/2000/svg">
<path opacity="0.1" fill-rule="evenodd" clip-rule="evenodd" d="M0 18.5C0 8.28273 8.28273 0 18.5 0C28.7173 0 37 8.28273 37 18.5C37 28.7173 28.7173 37 18.5 37C8.28273 37 0 28.7173 0 18.5Z" fill="white"/>
<path fill-rule="evenodd" clip-rule="evenodd" d="M26.2095 12.1402C27.0586 12.3732 27.7273 13.0598 27.9543 13.9316C28.3666 15.5116 28.3666 18.8085 28.3666 18.8085C28.3666 18.8085 28.3666 22.1052 27.9543 23.6854C27.7273 24.5572 27.0586 25.2437 26.2095 25.4768C24.6708 25.9001 18.5 25.9001 18.5 25.9001C18.5 25.9001 12.3292 25.9001 10.7903 25.4768C9.94119 25.2437 9.2725 24.5572 9.04557 23.6854C8.6333 22.1052 8.6333 18.8085 8.6333 18.8085C8.6333 18.8085 8.6333 15.5116 9.04557 13.9316C9.2725 13.0598 9.94119 12.3732 10.7903 12.1402C12.3292 11.7168 18.5 11.7168 18.5 11.7168C18.5 11.7168 24.6708 11.7168 26.2095 12.1402ZM16.65 16.0334V22.2001L21.5833 19.1168L16.65 16.0334Z" fill="white"/>
</svg>
